<svg width="94" height="93" viewBox="0 0 94 93" fill="none" xmlns="http://www.w3.org/2000/svg">
<circle cx="47" cy="46.5" r="44.4835" stroke="white" stroke-width="3.28292"/>
<g clip-path="url(#clip0_383_7651)">
<path d="M37.5625 26.2917H64.9792V44.8959H61.0625V30.2084H57.1458V41.2103L51.2708 38.2728L45.3958 41.2103V30.2084H41.4792V40.9792H37.5625V26.2917ZM49.3125 30.2084V34.8732L51.2708 33.894L53.2292 34.8732V30.2084H49.3125ZM39.3935 48.323C39.072 48.3222 38.7534 48.3847 38.4561 48.507C38.1587 48.6293 37.8883 48.809 37.6604 49.0358L33.6458 53.0504V60.5626H44.6654L56.0296 57.723L62.9464 54.7698C63.182 54.6425 63.3623 54.4327 63.4527 54.1806C63.5431 53.9285 63.5373 53.6519 63.4363 53.4039C63.3354 53.1559 63.1464 52.9538 62.9056 52.8366C62.6649 52.7193 62.3893 52.695 62.1317 52.7684L62.0926 52.7782L49.5357 55.6667H42.4583V51.7501H48.5781C49.0326 51.7501 49.4684 51.5695 49.7898 51.2482C50.1111 50.9268 50.2917 50.491 50.2917 50.0365C50.2917 49.5821 50.1111 49.1462 49.7898 48.8249C49.4684 48.5035 49.0326 48.323 48.5781 48.323H39.3994H39.3935ZM54.1829 50.579L61.1389 48.979C61.8797 48.7842 62.6554 48.7618 63.4062 48.9135C64.1571 49.0651 64.8633 49.3868 65.4704 49.8539C66.0776 50.3209 66.5697 50.9209 66.9089 51.6078C67.2481 52.2946 67.4253 53.0501 67.4271 53.8161C67.427 54.7462 67.1678 55.6578 66.6788 56.4488C66.1897 57.2399 65.4899 57.8791 64.658 58.2948L64.6051 58.3223L57.281 61.4458L45.1471 64.4792H22.875V50.2813H30.8767L34.8952 46.2628C35.4873 45.6728 36.1898 45.2051 36.9627 44.8866C37.7355 44.568 38.5635 44.4048 39.3994 44.4063H48.5781C49.3633 44.4062 50.1398 44.5704 50.8578 44.8882C51.5758 45.206 52.2193 45.6705 52.7471 46.2518C53.275 46.8331 53.6754 47.5183 53.9226 48.2635C54.1699 49.0088 54.2585 49.7975 54.1829 50.579ZM29.7292 54.198H26.7917V60.5626H29.7292V54.198Z" fill="white"/>
</g>
<defs>
<clipPath id="clip0_383_7651">
<rect width="47" height="47" fill="white" transform="translate(22.875 22.375)"/>
</clipPath>
</defs>
</svg>
