<svg width="33" height="32" viewBox="0 0 33 32" fill="none" xmlns="http://www.w3.org/2000/svg">
<rect x="0.91687" width="32" height="32" rx="3.2" fill="#FDD9E1"/>
<path d="M24.9358 10.0149C23.5124 9.87341 22.0889 9.76732 20.6567 9.68775V9.67891L20.4622 8.52956C20.3295 7.71617 20.135 6.49609 18.0662 6.49609H15.7498C13.6898 6.49609 13.4953 7.66313 13.3539 8.52072L13.1682 9.65238C12.346 9.70543 11.5238 9.75848 10.7015 9.83805L8.89794 10.0149C8.52661 10.0502 8.26138 10.3774 8.29674 10.7398C8.3321 11.1023 8.65039 11.3676 9.02171 11.3322L10.8253 11.1554C15.4581 10.6956 20.1262 10.8725 24.812 11.341C24.8385 11.341 24.8562 11.341 24.8827 11.341C25.2187 11.341 25.5105 11.0846 25.5458 10.7398C25.5723 10.3774 25.3071 10.0502 24.9358 10.0149Z" fill="#F83245"/>
<path d="M23.309 12.587C23.0968 12.366 22.8051 12.2422 22.5045 12.2422H11.3293C11.0287 12.2422 10.7281 12.366 10.5247 12.587C10.3214 12.808 10.2065 13.1086 10.2241 13.4181L10.7723 22.4891C10.8695 23.8329 10.9933 25.5127 14.0789 25.5127H19.7549C22.8404 25.5127 22.9642 23.8418 23.0615 22.4891L23.6096 13.4269C23.6273 13.1086 23.5124 12.808 23.309 12.587ZM18.3845 21.0833H15.4404C15.0779 21.0833 14.7773 20.7827 14.7773 20.4202C14.7773 20.0578 15.0779 19.7572 15.4404 19.7572H18.3845C18.747 19.7572 19.0476 20.0578 19.0476 20.4202C19.0476 20.7827 18.747 21.0833 18.3845 21.0833ZM19.1272 17.5469H14.7066C14.3441 17.5469 14.0435 17.2463 14.0435 16.8838C14.0435 16.5213 14.3441 16.2207 14.7066 16.2207H19.1272C19.4897 16.2207 19.7903 16.5213 19.7903 16.8838C19.7903 17.2463 19.4897 17.5469 19.1272 17.5469Z" fill="#F83245"/>
</svg>
