<svg width="33" height="32" viewBox="0 0 33 32" fill="none" xmlns="http://www.w3.org/2000/svg">
<rect x="0.91687" width="32" height="32" rx="3.2" fill="#FAECDC"/>
<path d="M25.9169 26H7.91687C7.50687 26 7.16687 25.66 7.16687 25.25C7.16687 24.84 7.50687 24.5 7.91687 24.5H25.9169C26.3269 24.5 26.6669 24.84 26.6669 25.25C26.6669 25.66 26.3269 26 25.9169 26Z" fill="#F7BA00"/>
<path d="M23.9369 7.47967C21.9969 5.53967 20.0969 5.48967 18.1069 7.47967L16.8969 8.68967C16.7969 8.78967 16.7569 8.94967 16.7969 9.08967C17.5569 11.7397 19.6769 13.8597 22.3269 14.6197C22.3669 14.6297 22.4069 14.6397 22.4469 14.6397C22.5569 14.6397 22.6569 14.5997 22.7369 14.5197L23.9369 13.3097C24.9269 12.3297 25.4069 11.3797 25.4069 10.4197C25.4169 9.42967 24.9369 8.46967 23.9369 7.47967Z" fill="#F7BA00"/>
<path d="M20.5269 15.5308C20.2369 15.3908 19.9569 15.2508 19.6869 15.0908C19.4669 14.9608 19.2569 14.8208 19.0469 14.6708C18.8769 14.5608 18.6769 14.4008 18.4869 14.2408C18.4669 14.2308 18.3969 14.1708 18.3169 14.0908C17.9869 13.8108 17.6169 13.4508 17.2869 13.0508C17.2569 13.0308 17.2069 12.9608 17.1369 12.8708C17.0369 12.7508 16.8669 12.5508 16.7169 12.3208C16.5969 12.1708 16.4569 11.9508 16.3269 11.7308C16.1669 11.4608 16.0269 11.1908 15.8869 10.9108C15.8657 10.8654 15.8452 10.8202 15.8253 10.7753C15.6778 10.442 15.2431 10.3446 14.9854 10.6023L9.25688 16.3308C9.12688 16.4608 9.00688 16.7108 8.97688 16.8808L8.43688 20.7108C8.33688 21.3908 8.52688 22.0308 8.94688 22.4608C9.30688 22.8108 9.80688 23.0008 10.3469 23.0008C10.4669 23.0008 10.5869 22.9908 10.7069 22.9708L14.5469 22.4308C14.7269 22.4008 14.9769 22.2808 15.0969 22.1508L20.8182 16.4295C21.0777 16.1699 20.9798 15.7245 20.6422 15.5804C20.6042 15.5642 20.5658 15.5476 20.5269 15.5308Z" fill="#F7BA00"/>
</svg>
