<svg width="49" height="30" viewBox="0 0 49 30" fill="none" xmlns="http://www.w3.org/2000/svg">
<g id="dark">
<path id="Vector" d="M14.0176 0.509117C10.6343 0.675581 7.53848 1.90916 4.98727 4.10823C4.72824 4.33076 4.14278 4.89849 3.86424 5.19637C2.39348 6.76989 1.25803 8.73065 0.629985 10.786C-0.248213 13.6562 -0.207408 16.7437 0.747078 19.5788C2.44315 24.613 6.80221 28.3453 12.0785 29.2792C12.9993 29.4422 13.6788 29.5 14.6829 29.5C15.5824 29.5 16.1359 29.4597 16.9272 29.3405C22.042 28.5696 26.4188 25.1299 28.3331 20.3761C28.5673 19.7908 28.9026 18.778 28.8689 18.7482C28.8565 18.736 24.6979 18.0263 24.6908 18.0351C24.6873 18.0386 24.6447 18.163 24.5933 18.3119C23.5802 21.2785 21.2242 23.6528 18.2294 24.7216C16.4429 25.3594 14.4558 25.4996 12.5753 25.1176C10.8739 24.7724 9.31793 24.0277 7.95895 22.9098C7.66444 22.6662 7.0701 22.0898 6.81285 21.7971C5.69692 20.5303 4.91985 19.0496 4.52599 17.4446C4.32196 16.6157 4.23681 15.8973 4.23681 15.0089C4.23503 14.3326 4.27051 13.9085 4.37696 13.2742C4.91807 10.0624 7.01333 7.26052 9.97259 5.78513C11.1471 5.19988 12.3056 4.86695 13.6805 4.71976C14.0496 4.68121 15.2223 4.67595 15.5966 4.711C16.505 4.79861 17.3069 4.96858 18.107 5.24193C20.8445 6.17588 23.0888 8.21899 24.2615 10.8456C24.3254 10.991 24.3786 11.1137 24.3786 11.119C24.3786 11.1312 23.0657 11.1295 22.5477 11.1155L22.1112 11.1049L21.964 10.8579C20.9971 9.21777 19.537 7.97193 17.7717 7.28329C17.1135 7.02571 16.3914 6.84698 15.6321 6.75587C15.3145 6.71732 14.3973 6.70155 14.062 6.72783C12.8946 6.82245 11.8354 7.11858 10.833 7.62849C9.71002 8.20322 8.72182 9.03028 7.96072 10.0326C6.9264 11.3958 6.36222 12.9798 6.28948 14.7321L6.27706 15.0177H17.8302H29.3834L29.3728 14.7058C29.3479 13.9979 29.3071 13.5073 29.222 12.915C28.7039 9.32466 26.8109 6.03745 23.9351 3.735C21.5666 1.83732 18.7067 0.7299 15.6498 0.52664C15.2595 0.500357 14.3831 0.491596 14.0176 0.509117Z" fill="#009B4C"/>
<path id="Vector_2" d="M33.0987 14.5902C32.6942 14.6462 32.4334 14.7251 32.1336 14.8775C31.8675 15.0142 31.6705 15.1614 31.447 15.3892C31.0975 15.7484 30.8722 16.1672 30.7622 16.6701C30.7054 16.9259 30.7054 17.4516 30.7622 17.7039C30.9307 18.4556 31.3796 19.0706 32.0378 19.4491C32.7687 19.8679 33.693 19.9047 34.4719 19.5455C34.7451 19.4193 34.9722 19.2599 35.2117 19.0233C35.5949 18.6431 35.822 18.2313 35.9391 17.6986C35.987 17.4866 35.987 16.8961 35.9409 16.6823C35.712 15.6222 34.9012 14.8302 33.835 14.6234C33.6913 14.5954 33.2123 14.5744 33.0987 14.5902Z" fill="#332C2B"/>
<path id="Vector_3" d="M37.2054 23.2708V29.3511H39.0328H40.8601L40.8637 25.0178L40.869 20.6862L41.6851 20.688C42.5243 20.6897 42.7478 20.7002 43.131 20.7668C44.2416 20.9561 44.9265 21.508 45.1535 22.3999C45.221 22.6628 45.2423 22.8573 45.2423 23.1867C45.2423 24.2871 44.8147 25.0546 43.9773 25.4593C43.4326 25.7204 42.7851 25.8273 41.7348 25.8291H41.4456V27.6076V29.3861L41.4953 29.3984C41.5219 29.4036 41.9228 29.4106 42.3859 29.4106C43.0991 29.4124 43.2676 29.4071 43.4859 29.3809C45.0081 29.1934 46.1666 28.6607 47.1832 27.6864C48.2122 26.6982 48.7746 25.5434 48.9591 24.033C48.9981 23.7176 49.0123 22.9939 48.9875 22.6575C48.8952 21.4414 48.5351 20.4567 47.8698 19.5841C47.2932 18.8323 46.5853 18.2699 45.7372 17.8896C44.9673 17.5444 44.1795 17.3464 43.1133 17.2308C42.8685 17.2045 42.5314 17.201 40.0227 17.1958L37.2054 17.1887V23.2708Z" fill="#332C2B"/>
<path id="Vector_4" d="M34.8337 20.1746C34.3334 20.546 33.7089 20.7423 33.1607 20.7055C32.6391 20.6687 32.1867 20.497 31.5959 20.1097L31.5462 20.0782V24.7321V29.3861H33.2671H34.988V24.7251C34.988 22.1616 34.9863 20.0642 34.9845 20.0659C34.9809 20.0659 34.9135 20.115 34.8337 20.1746Z" fill="#332C2B"/>
</g>
</svg>
