<svg width="21" height="21" viewBox="0 0 21 21" fill="none" xmlns="http://www.w3.org/2000/svg">
<g id="home">
<path id="Vector" d="M18.5991 9.91074L16.9304 8.24405L11.0899 2.41066C10.9334 2.25443 10.7212 2.16666 10.5 2.16666C10.2788 2.16666 10.0666 2.25443 9.91011 2.41066L4.0696 8.24405L2.40089 9.91074C2.2489 10.0679 2.1648 10.2784 2.1667 10.4969C2.1686 10.7154 2.25635 10.9244 2.41105 11.0789C2.56575 11.2334 2.77501 11.3211 2.99378 11.323C3.21255 11.3249 3.42331 11.2409 3.58067 11.0891L3.82514 10.8449V17.1666C3.82514 17.6087 4.00095 18.0326 4.31389 18.3452C4.62684 18.6577 5.05128 18.8333 5.49385 18.8333H7.99693C8.21822 18.8333 8.43044 18.7455 8.58691 18.5893C8.74338 18.433 8.83129 18.221 8.83129 18V14.6666C8.83129 14.4456 8.91919 14.2336 9.07567 14.0774C9.23214 13.9211 9.44436 13.8333 9.66565 13.8333H11.3344C11.5557 13.8333 11.7679 13.9211 11.9243 14.0774C12.0808 14.2336 12.1687 14.4456 12.1687 14.6666V18C12.1687 18.221 12.2566 18.433 12.4131 18.5893C12.5696 18.7455 12.7818 18.8333 13.0031 18.8333H15.5062C15.9487 18.8333 16.3732 18.6577 16.6861 18.3452C16.9991 18.0326 17.1749 17.6087 17.1749 17.1666V10.8449L17.4193 11.0891C17.5767 11.2409 17.7875 11.3249 18.0062 11.323C18.225 11.3211 18.4343 11.2334 18.589 11.0789C18.7437 10.9244 18.8314 10.7154 18.8333 10.4969C18.8352 10.2784 18.7511 10.0679 18.5991 9.91074Z" fill="#75787B"/>
</g>
</svg>
