<svg width="112" height="36" viewBox="0 0 112 36" fill="none" xmlns="http://www.w3.org/2000/svg">
<path d="M0.758258 1.39877L0.210632 1.82002V12.0353V22.2296H1.79032H3.37001V16.985V11.7405L4.06508 10.8137C4.46526 10.2661 5.20245 9.67635 5.89751 9.31828C6.88745 8.79172 7.24552 8.72853 8.31971 8.81278C9.79408 8.91809 10.5945 9.27616 11.5423 10.245C12.8692 11.6141 12.9535 11.93 13.0167 17.322L13.0798 22.2296H14.5542H16.0497L15.9654 17.1114L15.9654 12L15.2493 10.6452C14.0908 8.18091 12.3848 6.74866 9.8994 6.09572C8.10908 5.6534 6.44514 5.8219 4.67589 6.64334C3.9387 7.0014 3.30682 7.27522 3.28576 7.27522C3.28576 7.27522 3.2647 6.07465 3.2647 4.62134C3.2647 1.98852 3.2647 1.96746 2.67495 1.46196C1.95882 0.851147 1.49545 0.830084 0.758258 1.39877Z" fill="white"/>
<path d="M36.1433 1.39877L35.5957 1.82002V12.0353V22.2296H37.0701H38.5445V12.0564C38.5445 6.47484 38.4602 1.79896 38.376 1.67258C38.1864 1.37771 37.386 0.956459 37.0069 0.956459C36.8384 0.956459 36.4593 1.14602 36.1433 1.39877Z" fill="white"/>
<path d="M41.1983 1.4409L40.6507 1.98852V12.1196V22.2296H42.1251H43.5995V12.0564C43.5995 4.24221 43.5363 1.79896 43.3467 1.52515C43.1993 1.33559 42.778 1.1039 42.3989 1.04071C41.8513 0.935398 41.6196 1.01965 41.1983 1.4409Z" fill="white"/>
<path d="M24.0113 6.20103C21.7787 6.93822 19.9252 8.51791 18.8931 10.6242C18.2823 11.8879 18.2191 12.1828 18.2191 14.0152C18.2191 15.8477 18.2823 16.1425 18.8931 17.4063C21.3364 22.3771 27.4656 23.7251 31.5728 20.2076C32.5627 19.3441 32.7101 18.5016 32.0151 17.8065C31.4043 17.1957 30.646 17.2799 29.5718 18.1014C27.4234 19.7442 24.5589 19.5968 22.5791 17.7222C21.9472 17.1535 21.2732 16.1425 21.2732 15.8055C21.2732 15.7424 23.9692 15.7002 27.2549 15.7002C33.0471 15.7002 33.2367 15.6792 33.8054 15.2369C34.353 14.7945 34.3741 14.7314 34.2898 13.257C34.1213 10.561 32.4363 8.15985 29.8035 6.79078C28.6872 6.22209 28.3081 6.13784 26.5388 6.07466C25.4436 6.05359 24.3062 6.09572 24.0113 6.20103ZM28.4344 9.29722C29.3191 9.67635 29.7824 10.0765 30.5618 11.1507C31.6149 12.583 31.7413 12.5409 26.2229 12.5409C23.5058 12.5409 21.2732 12.4566 21.2732 12.3724C21.2732 12.2881 21.547 11.7615 21.884 11.235C22.5159 10.224 23.906 9.2551 25.1276 8.93916C25.9701 8.72854 27.4656 8.89704 28.4344 9.29722Z" fill="white"/>
<path d="M51.8138 6.20099C49.539 6.93818 47.6013 8.58106 46.6114 10.582C46.0637 11.6983 46.0216 11.9932 46.0216 14.1205C46.0216 16.2268 46.0848 16.5427 46.5903 17.6169C47.3907 19.2176 48.8861 20.692 50.5501 21.4713C51.7927 22.0611 52.1087 22.1243 54.0254 22.1243C56.0052 22.1243 56.2159 22.0821 57.5639 21.4081C59.2489 20.5656 60.6811 19.0913 61.4815 17.3852C61.9449 16.3953 62.0291 15.9319 62.0291 14.1205C62.0291 12.267 61.9659 11.8668 61.4604 10.8137C60.6811 9.12869 59.2068 7.61218 57.5217 6.79075C56.3212 6.20099 55.8999 6.11674 54.236 6.07462C53.2039 6.05356 52.1087 6.11674 51.8138 6.20099ZM56.0052 9.31825C58.0062 10.1186 59.1857 11.9089 59.1857 14.1205C59.1857 18.0803 55.1417 20.5025 51.5821 18.6911C48.7387 17.2588 47.854 13.8046 49.6654 11.1718C51.1187 9.0655 53.6252 8.32831 56.0052 9.31825Z" fill="white"/>
<path d="M69.2957 6.20096C67.358 6.79071 65.7362 8.18084 64.8937 9.99222C64.346 11.1507 64.346 11.2349 64.2829 16.7112L64.2197 22.2506L65.6519 22.1874L67.0842 22.1242L67.1263 17.2799C67.1684 14.6049 67.2316 12.1195 67.2948 11.7404C67.4422 10.8979 68.5375 9.63416 69.4432 9.25503C70.3278 8.87591 72.1181 8.87591 72.8342 9.25503C73.6136 9.65522 74.2665 10.4135 74.6667 11.3192C74.9194 11.951 74.9826 13.0673 74.9826 17.1745V22.2295H76.5623H78.142V17.1745C78.142 13.0673 78.2052 11.951 78.4579 11.3192C79.1319 9.73947 80.2693 8.96015 81.9333 8.96015C83.3444 8.96015 84.5239 9.57097 85.2401 10.6873L85.8298 11.5508L85.893 16.9007L85.9562 22.2295H87.4306H88.926L88.8418 16.6901C88.7786 11.4877 88.7575 11.1085 88.2941 10.1397C87.5991 8.62315 86.567 7.44365 85.2822 6.74859C84.3133 6.22203 83.8499 6.11671 82.2071 6.05353C80.4799 5.96928 80.164 6.0114 79.0477 6.5169C78.3737 6.83284 77.5101 7.38047 77.1521 7.73853L76.4781 8.39147L76.0357 7.84384C75.8041 7.54897 75.0247 7.0224 74.3086 6.66434C73.1923 6.09565 72.8132 6.0114 71.4231 6.03246C70.5384 6.03246 69.5906 6.11671 69.2957 6.20096Z" fill="white"/>
<path d="M96.1715 6.4538C89.4315 9.19193 89.0524 18.3963 95.5607 21.4293C100.026 23.5355 105.228 21.2818 106.766 16.6059C108.114 12.4777 105.945 7.99136 101.837 6.4538C100.258 5.86405 97.6248 5.86405 96.1715 6.4538ZM101.205 9.38149C103.586 10.3925 104.786 13.0885 104.028 15.7845C103.754 16.7955 102.301 18.3752 101.205 18.8807C100.279 19.323 98.4673 19.4073 97.2878 19.0703C95.2448 18.5016 93.5808 15.9109 93.7914 13.6782C94.1706 9.9923 97.7723 7.90711 101.205 9.38149Z" fill="white"/>
<path d="M108.956 6.76966C108.514 7.21197 108.451 7.44366 108.556 8.07554C108.704 9.00229 109.336 9.59204 110.199 9.59204C111.063 9.59204 111.526 9.29717 111.842 8.53891C112.053 8.03341 112.053 7.78066 111.842 7.27516C111.358 6.0746 109.904 5.82185 108.956 6.76966ZM111.084 6.87497C111.442 7.14879 111.631 7.50685 111.631 7.90704C111.631 8.51785 110.831 9.38142 110.262 9.38142C109.715 9.38142 108.893 8.51785 108.893 7.94916C108.893 7.27516 109.062 7.00135 109.63 6.68541C110.22 6.34841 110.452 6.36947 111.084 6.87497Z" fill="white"/>
<path d="M109.799 7.00132C109.483 7.10663 109.42 8.74951 109.736 8.74951C109.862 8.74951 109.946 8.60207 109.946 8.43357C109.946 8.26507 110.031 8.11764 110.136 8.11764C110.241 8.11764 110.368 8.26507 110.452 8.43357C110.515 8.60207 110.663 8.74951 110.789 8.74951C110.936 8.74951 110.957 8.62314 110.81 8.37039C110.663 8.09657 110.663 7.90701 110.831 7.73851C111.231 7.33832 110.452 6.7907 109.799 7.00132ZM110.578 7.48576C110.578 7.59107 110.431 7.69639 110.262 7.69639C110.094 7.69639 109.946 7.59107 109.946 7.48576C109.946 7.35938 110.094 7.27513 110.262 7.27513C110.431 7.27513 110.578 7.35938 110.578 7.48576Z" fill="white"/>
<path d="M13.0588 28.9696C13.0588 32.1921 13.1009 32.7608 13.3747 32.7608C13.5432 32.7608 13.6907 32.6134 13.6907 32.4238C13.6907 32.15 13.796 32.1711 14.2383 32.5291C15.0808 33.1821 15.9233 33.0978 16.7658 32.2553C17.3766 31.6445 17.4819 31.3918 17.4819 30.5493C17.4819 29.7489 17.3766 29.454 16.8711 28.9485C16.155 28.2534 14.9544 28.106 14.154 28.6747L13.6907 28.9906V27.095C13.6907 25.5364 13.6275 25.1783 13.3747 25.1783C13.1009 25.1783 13.0588 25.747 13.0588 28.9696ZM16.3235 29.4961C17.5872 30.7388 16.4077 32.6766 14.7648 32.1079C14.0277 31.8551 13.6907 31.3707 13.6907 30.5493C13.6907 29.8542 14.5753 28.9696 15.2703 28.9696C15.5652 28.9696 16.0497 29.2013 16.3235 29.4961Z" fill="white"/>
<path d="M37.4281 25.3047C37.3439 25.389 37.2807 27.1161 37.2807 29.117C37.2807 32.5081 37.3018 32.7819 37.6598 32.7187C37.9547 32.6556 38.039 32.3817 38.0811 31.118C38.1443 29.791 38.2075 29.5594 38.6498 29.2645C38.9446 29.0749 39.3448 28.9907 39.5976 29.0749C40.0188 29.2013 40.061 29.433 40.061 31.2865C40.0399 32.2975 40.2084 32.7609 40.5665 32.7609C41.0088 32.7609 40.9877 29.454 40.5243 28.8011C40.1873 28.3167 39.1342 28.1692 38.5445 28.5484C38.2706 28.7169 38.2075 28.4852 38.1232 27.0319C38.0179 25.4732 37.8073 24.9256 37.4281 25.3047Z" fill="white"/>
<path d="M21.0626 29.0749C21.0626 32.6134 21.0836 32.7609 21.4838 32.7609C21.884 32.7609 21.9051 32.6134 21.9051 29.0749C21.9051 25.5364 21.884 25.389 21.4838 25.389C21.0836 25.389 21.0626 25.5364 21.0626 29.0749Z" fill="white"/>
<path d="M18.6193 26.4631C18.4297 26.7791 18.872 27.1582 19.2511 27.0108C19.4407 26.9265 19.5881 26.737 19.5881 26.5474C19.5881 26.1893 18.8509 26.1051 18.6193 26.4631Z" fill="white"/>
<path d="M96.677 26.6527C96.677 27.1371 97.4142 27.2424 97.5827 26.779C97.7301 26.3999 97.5616 26.2314 97.0561 26.2314C96.8244 26.2314 96.677 26.3788 96.677 26.6527Z" fill="white"/>
<path d="M0 30.5493C0 32.3817 0.0631876 32.7609 0.315938 32.7609C0.568688 32.7609 0.631876 32.466 0.631876 31.2865C0.631876 29.7068 1.03206 28.9696 1.8535 28.9696C2.54857 28.9696 2.73813 29.4119 2.73813 31.118C2.73813 32.4449 2.80132 32.7609 3.05407 32.7609C3.30682 32.7609 3.37 32.466 3.37 31.3286C3.37 30.0859 3.43319 29.8121 3.85444 29.433C4.94969 28.4009 5.47626 28.9696 5.47626 31.139C5.47626 32.5924 5.51838 32.7819 5.85538 32.7187C6.52938 32.5924 6.4662 29.3487 5.77113 28.6537C5.34988 28.2535 4.44419 28.2535 3.83338 28.6747C3.41213 28.9696 3.32788 28.9696 3.033 28.6747C2.61175 28.2324 1.49544 28.2535 1.011 28.6958C0.652938 29.0117 0.631876 29.0117 0.631876 28.6958C0.631876 28.4852 0.484438 28.3377 0.315938 28.3377C0.0631876 28.3377 0 28.7169 0 30.5493Z" fill="white"/>
<path d="M8.25651 28.6746C7.68782 29.0748 7.16125 30.0437 7.16125 30.6966C7.16125 31.4338 7.87738 32.4448 8.61457 32.7397C11.2684 33.856 13.1641 29.8752 10.5944 28.5693C9.94151 28.2323 8.80413 28.2744 8.25651 28.6746ZM10.6366 29.4961C11.5423 30.3807 11.2263 31.6655 10.0468 32.1078C8.97263 32.5291 8.00376 31.813 8.00376 30.6335C8.00376 29.1591 9.62557 28.464 10.6366 29.4961Z" fill="white"/>
<path d="M24.0956 28.5693C22.916 29.1591 22.6422 31.2232 23.6111 32.2553C24.4747 33.182 26.4335 33.0978 26.9601 32.1079C27.2339 31.6024 26.8337 31.3707 26.3703 31.7709C25.4857 32.5291 24.2641 32.3395 23.8217 31.3496C23.6954 31.0758 23.59 30.802 23.59 30.7599C23.59 30.6967 24.4536 30.6545 25.4857 30.6545C27.0654 30.6545 27.3813 30.5914 27.3813 30.3386C27.3813 29.812 26.7916 28.801 26.3492 28.5483C25.8437 28.2745 24.6853 28.2955 24.0956 28.5693ZM26.1597 29.3276C26.8969 30.0016 26.6441 30.2333 25.1697 30.2333C23.7164 30.2333 23.5058 30.0648 24.1587 29.3487C24.58 28.8853 25.6331 28.8642 26.1597 29.3276Z" fill="white"/>
<path d="M31.7412 28.4851C31.657 28.5483 31.5938 30.0859 31.5938 31.8551C31.5938 34.846 31.6149 35.0988 31.9729 35.0356C32.2467 34.9724 32.331 34.7196 32.3731 33.9193C32.3942 33.3295 32.4152 32.7608 32.4152 32.6134C32.4363 32.4449 32.6259 32.466 33.0893 32.6976C34.4794 33.3927 35.9748 32.466 36.1644 30.802C36.2697 29.9806 36.1854 29.791 35.5957 29.117C35.0481 28.4851 34.7743 28.3377 34.1424 28.3377C33.7001 28.3377 33.1735 28.4851 32.9418 28.6536C32.4152 29.0538 32.2257 29.0538 32.2257 28.6536C32.2257 28.3166 31.9729 28.2324 31.7412 28.4851ZM34.6479 29.096C35.1323 29.2855 35.6168 30.3597 35.4693 30.9495C35.0059 32.803 32.4363 32.5291 32.4363 30.6335C32.4363 29.454 33.5526 28.6747 34.6479 29.096Z" fill="white"/>
<path d="M42.6937 28.759C41.1772 29.9596 41.8512 32.5292 43.7469 32.8873C45.474 33.2032 46.8009 31.6867 46.3165 29.9175C46.0427 28.9275 45.2212 28.3378 44.126 28.3378C43.5573 28.3378 43.0518 28.4852 42.6937 28.759ZM45.1581 29.412C46.0427 30.107 45.8952 31.4971 44.8632 32.0237C44.3998 32.2554 44.126 32.2765 43.6205 32.108C42.8622 31.8341 42.5463 31.3708 42.5463 30.4651C42.5463 29.749 43.3677 28.9696 44.126 28.9696C44.3787 28.9696 44.8421 29.1592 45.1581 29.412Z" fill="white"/>
<path d="M47.6013 30.5493C47.6013 32.3817 47.6645 32.7609 47.9173 32.7609C48.17 32.7609 48.2332 32.466 48.2332 31.2865C48.2332 29.7068 48.6334 28.9696 49.4548 28.9696C50.1499 28.9696 50.3394 29.4119 50.3394 31.118C50.3394 32.4449 50.4026 32.7609 50.6554 32.7609C51.1188 32.7609 51.1188 29.1381 50.6343 28.6747C50.2131 28.2324 49.0968 28.2535 48.6123 28.6958C48.2543 29.0117 48.2332 29.0117 48.2332 28.6958C48.2332 28.4852 48.0858 28.3377 47.9173 28.3377C47.6645 28.3377 47.6013 28.7169 47.6013 30.5493Z" fill="white"/>
<path d="M52.9512 28.7168C51.2872 30.0438 51.9612 32.6345 54.0253 32.9083C54.7625 32.9925 54.9942 32.9293 55.584 32.4449C56.0473 32.0447 56.1948 31.792 56.0473 31.6445C55.8999 31.4971 55.7103 31.5182 55.4576 31.7498C54.8468 32.2975 54.1938 32.3817 53.5409 32.0447C52.9722 31.7498 52.6563 31.3286 52.6563 30.8442C52.6563 30.7388 53.5198 30.6546 54.5519 30.6546C56.595 30.6546 56.7424 30.5493 56.2158 29.5383C55.8157 28.759 55.1206 28.3377 54.236 28.3377C53.7515 28.3377 53.2039 28.5062 52.9512 28.7168ZM55.2259 29.3277C55.9631 30.0017 55.7103 30.2333 54.236 30.2333C52.7827 30.2333 52.572 30.0648 53.225 29.3487C53.6462 28.8853 54.6993 28.8643 55.2259 29.3277Z" fill="white"/>
<path d="M60.955 29.0538C60.1125 29.8963 60.0071 30.802 60.6601 31.8762C61.3551 33.0136 62.9138 33.2663 63.8616 32.4028C64.2196 32.0868 64.2407 32.0868 64.2407 32.4028C64.2407 32.6134 64.3881 32.7608 64.5566 32.7608C64.8094 32.7608 64.8726 32.3817 64.8726 30.5493C64.8726 28.7168 64.8094 28.3377 64.5566 28.3377C64.3881 28.3377 64.2407 28.4851 64.2407 28.6536C64.2407 28.8221 64.1565 28.9696 64.0511 28.9696C63.9458 28.9696 63.7563 28.8221 63.6088 28.6536C63.4614 28.4641 62.998 28.3377 62.5136 28.3377C61.8396 28.3377 61.5236 28.4851 60.955 29.0538ZM63.5878 29.3276C64.3039 29.9385 64.3671 30.9073 63.7773 31.6024C62.5768 32.9925 60.4916 31.792 61.1024 30.0648C61.4605 29.0328 62.7663 28.6536 63.5878 29.3276Z" fill="white"/>
<path d="M66.7893 28.8854C65.5887 29.8753 65.7362 31.7709 67.0631 32.5713C67.9056 33.0768 68.6007 33.0768 69.4853 32.5292C69.9908 32.2343 70.1382 32.0447 69.9697 31.8762C69.8012 31.7077 69.5274 31.7499 69.0008 32.0026C67.8213 32.5713 66.7682 31.9394 66.7682 30.6335C66.7682 29.3066 68.1583 28.5484 69.2325 29.2855C69.8855 29.7489 70.1382 29.2434 69.5063 28.7169C68.8113 28.1482 67.5686 28.2114 66.7893 28.8854Z" fill="white"/>
<path d="M71.5495 28.78C70.2225 29.8121 70.4121 31.9815 71.8865 32.6766C72.7711 33.0978 73.9085 32.9504 74.4561 32.3396C75.0037 31.7288 74.7088 31.6024 73.74 32.0026C72.392 32.5291 71.402 31.9605 71.402 30.6335C71.402 29.3066 72.7921 28.5483 73.8663 29.2855C74.5193 29.7489 74.772 29.2434 74.1401 28.7168C73.5083 28.2113 72.2445 28.2324 71.5495 28.78Z" fill="white"/>
<path d="M76.3306 28.7169C75.2564 29.5804 75.0879 31.0969 75.9515 32.1079C76.8361 33.1821 78.6896 33.2032 79.3636 32.129C79.6795 31.6024 79.3004 31.3497 78.816 31.7709C77.9945 32.4871 76.9625 32.3818 76.3095 31.5182C75.7408 30.781 75.9725 30.6546 77.9313 30.6546C79.9744 30.6546 80.1218 30.5493 79.5953 29.5383C79.1951 28.759 78.5 28.3378 77.6154 28.3378C77.131 28.3378 76.5833 28.5063 76.3306 28.7169ZM78.6053 29.3277C79.3425 30.0017 79.0898 30.2334 77.6154 30.2334C76.1621 30.2334 75.9515 30.0649 76.6044 29.3488C77.0257 28.8854 78.0788 28.8643 78.6053 29.3277Z" fill="white"/>
<path d="M81.0065 28.6115C80.7537 28.8011 80.6484 29.0959 80.7116 29.5804C80.7537 30.1491 80.9433 30.3597 81.6173 30.7388C82.1228 31.0337 82.4808 31.3918 82.523 31.6656C82.6283 32.2975 81.9964 32.487 81.2803 32.0658C80.501 31.6445 80.185 32.0447 80.8801 32.5923C81.8068 33.3506 83.197 32.824 83.197 31.7077C83.197 31.0337 83.0285 30.8441 81.9753 30.2123C81.0486 29.6646 81.1328 29.0749 82.1438 29.0538C83.2812 29.0117 83.3233 28.9696 82.9021 28.6536C82.3966 28.2745 81.512 28.2534 81.0065 28.6115Z" fill="white"/>
<path d="M84.5029 28.4852C84.3555 28.5273 84.1448 28.759 84.0395 28.9696C83.7025 29.6015 84.1448 30.3808 85.0926 30.8653C85.6613 31.1601 85.9352 31.434 85.9352 31.7288C85.9352 32.3186 85.3454 32.466 84.6503 32.0658C83.871 31.6446 83.5551 32.0448 84.2501 32.5924C85.219 33.3717 86.6302 32.803 86.5249 31.6446C86.4828 31.1601 86.2511 30.8442 85.6192 30.4229C84.545 29.6858 84.4818 29.0749 85.5139 29.0539C86.6513 29.0118 86.6934 28.9696 86.2722 28.6537C85.872 28.3378 85.0295 28.2746 84.5029 28.4852Z" fill="white"/>
<path d="M88.1888 28.7801C87.8729 29.0117 87.5148 29.5594 87.3884 30.0017C86.6934 32.3396 89.7264 33.9825 91.285 32.1079C92.1064 31.1391 92.0643 29.77 91.1797 28.9486C90.3583 28.1903 89.0313 28.1061 88.1888 28.7801ZM90.6742 29.4962C91.3271 30.1281 91.3693 31.118 90.7795 31.7077C90.1266 32.3607 88.9892 32.3396 88.4205 31.6656C87.8518 31.0127 87.9361 29.9385 88.589 29.4119C89.3262 28.8222 90.0423 28.8643 90.6742 29.4962Z" fill="white"/>
<path d="M94.0863 28.6958C93.8546 28.9275 93.7283 28.9696 93.7283 28.8011C93.7283 28.6537 93.5808 28.5484 93.4123 28.5484C93.1596 28.5484 93.0964 28.9275 93.0964 30.6546C93.0964 32.3817 93.1596 32.7609 93.4123 32.7609C93.6651 32.7609 93.7283 32.4449 93.7283 31.2233C93.7283 29.9174 93.7914 29.6015 94.1706 29.2645C94.5286 28.9485 94.655 28.9275 95.0341 29.1592C95.6028 29.4962 96.0241 29.1381 95.6239 28.6537C95.2658 28.2324 94.5286 28.2535 94.0863 28.6958Z" fill="white"/>
<path d="M99.4362 28.8853C98.2356 29.8752 98.3831 31.7709 99.71 32.5712C100.068 32.7819 100.595 32.9714 100.89 32.9714C101.479 32.9714 102.785 32.2553 102.785 31.9394C102.785 31.4971 102.343 31.4971 101.795 31.9183C101.395 32.2342 101.058 32.3185 100.679 32.2342C99.9838 32.0447 99.4151 31.5181 99.4151 31.0337C99.4151 30.6967 99.6047 30.6546 101.205 30.6546C102.996 30.6546 102.996 30.6546 102.996 30.1069C102.996 29.791 102.743 29.3066 102.385 28.9485C101.564 28.1271 100.363 28.106 99.4362 28.8853ZM101.943 29.3908C102.575 30.0227 102.301 30.2333 100.763 30.2333C99.3309 30.2333 99.1624 30.0648 99.8364 29.3908C100.384 28.8432 101.395 28.8432 101.943 29.3908Z" fill="white"/>
<path d="M104.259 28.759C103.543 29.4751 103.838 30.2123 105.102 30.8652C106.008 31.3286 106.155 31.7077 105.607 32.15C105.334 32.3817 105.165 32.3817 104.66 32.0868C103.88 31.6445 103.564 32.0236 104.259 32.5923C104.87 33.0978 105.629 33.0768 106.176 32.5292C106.829 31.8762 106.64 31.0969 105.629 30.4229C104.554 29.6857 104.491 29.0749 105.523 29.0538C106.661 29.0117 106.703 28.9696 106.281 28.6536C105.692 28.2113 104.765 28.2535 104.259 28.759Z" fill="white"/>
<path d="M18.7457 30.6546C18.7457 32.3817 18.8089 32.7609 19.0616 32.7609C19.3144 32.7609 19.3775 32.3817 19.3775 30.6546C19.3775 28.9275 19.3144 28.5484 19.0616 28.5484C18.8089 28.5484 18.7457 28.9275 18.7457 30.6546Z" fill="white"/>
<path d="M96.8876 30.6546C96.8876 32.3817 96.9508 32.7609 97.2036 32.7609C97.4563 32.7609 97.5195 32.3817 97.5195 30.6546C97.5195 28.9275 97.4563 28.5484 97.2036 28.5484C96.9508 28.5484 96.8876 28.9275 96.8876 30.6546Z" fill="white"/>
</svg>
