<svg width="31" height="30" viewBox="0 0 31 30" fill="none" xmlns="http://www.w3.org/2000/svg">
<rect x="0.5" width="29.7143" height="29.7143" rx="5.33333" fill="#F0B400"/>
<path d="M17.8771 8.19043H12.8371C10.3171 8.19043 9.69048 8.86376 9.69048 11.5504V19.0571C9.69048 20.8304 10.6638 21.2504 11.8438 19.9838L11.8505 19.9771C12.3971 19.3971 13.2305 19.4438 13.7038 20.0771L14.3771 20.9771C14.9171 21.6904 15.7905 21.6904 16.3305 20.9771L17.0038 20.0771C17.4838 19.4371 18.3171 19.3904 18.8638 19.9771C20.0505 21.2438 21.0171 20.8238 21.0171 19.0504V11.5504C21.0238 8.86376 20.3971 8.19043 17.8771 8.19043ZM17.3571 14.6904H13.3571C13.0838 14.6904 12.8571 14.4638 12.8571 14.1904C12.8571 13.9171 13.0838 13.6904 13.3571 13.6904H17.3571C17.6305 13.6904 17.8571 13.9171 17.8571 14.1904C17.8571 14.4638 17.6305 14.6904 17.3571 14.6904ZM18.0238 12.0238H12.6905C12.4171 12.0238 12.1905 11.7971 12.1905 11.5238C12.1905 11.2504 12.4171 11.0238 12.6905 11.0238H18.0238C18.2971 11.0238 18.5238 11.2504 18.5238 11.5238C18.5238 11.7971 18.2971 12.0238 18.0238 12.0238Z" fill="white"/>
</svg>
