<svg width="30" height="30" viewBox="0 0 30 30" fill="none" xmlns="http://www.w3.org/2000/svg">
<rect x="0.25" width="29.7143" height="29.7143" rx="5.33333" fill="#F13535"/>
<path d="M13.7738 12.1904V16.1904L16.9071 18.1238L17.4405 17.3238L14.7738 15.7238V12.1904H13.7738Z" fill="white"/>
<path d="M19.0538 14.8577C19.1543 15.5204 19.11 16.1969 18.9239 16.8408C18.7379 17.4846 18.4145 18.0805 17.976 18.5874C17.5376 19.0943 16.9945 19.5001 16.3841 19.777C15.7738 20.0538 15.1107 20.1951 14.4405 20.1911C11.8405 20.1911 9.77382 18.1244 9.77382 15.5244C9.77382 12.9244 11.8405 10.8577 14.4405 10.8577C14.9072 10.8577 15.3538 10.9244 15.7738 11.0511V9.67775C15.3472 9.57775 14.9005 9.52441 14.4405 9.52441C11.1072 9.52441 8.44049 12.1911 8.44049 15.5244C8.44049 18.8577 11.1072 21.5244 14.4405 21.5244C15.2856 21.5279 16.1219 21.3521 16.894 21.0086C17.6662 20.6651 18.3567 20.1617 18.92 19.5316C19.4833 18.9016 19.9065 18.1592 20.1617 17.3535C20.4169 16.5478 20.4983 15.6972 20.4005 14.8577H19.0538Z" fill="white"/>
<path d="M20.4405 10.1904V8.19043H19.1071V10.1904H17.1071V11.5238H19.1071V13.5238H20.4405V11.5238H22.4405V10.1904H20.4405Z" fill="white"/>
</svg>
