<svg width="33" height="33" viewBox="0 0 33 33" fill="none" xmlns="http://www.w3.org/2000/svg">
<rect x="0.75" y="0.5" width="32" height="32" rx="5.33333" fill="#338EFF"/>
<path d="M17.7633 17.7571H19.4167C19.522 17.7571 19.6071 17.8413 19.6071 17.9476V20.9342C19.6071 21.8617 19.2863 22.5533 18.795 23.0146C18.2998 23.4795 17.6017 23.738 16.8033 23.738H12.3157C11.5173 23.738 10.8192 23.4795 10.3241 23.0146C9.83272 22.5533 9.5119 21.8617 9.5119 20.9342V15.8752C9.5119 14.9477 9.83272 14.2561 10.3241 13.7948C10.8192 13.33 11.5173 13.0714 12.3157 13.0714H14.731C14.8373 13.0714 14.9214 13.1566 14.9214 13.2619V14.9152C14.9214 16.4902 16.1975 17.7571 17.7633 17.7571Z" fill="white" stroke="white" stroke-width="0.761905"/>
<path d="M19.6833 9.26181H21.1843C21.9827 9.26181 22.6808 9.52039 23.1759 9.98526C23.6673 10.4466 23.9881 11.1382 23.9881 12.0656V13.5666V15.6313V17.1323C23.9881 18.0354 23.6827 18.7121 23.2128 19.1699C22.8237 19.5489 22.3028 19.7961 21.7024 19.8855V18.679V16.6142V15.1132C21.7024 13.9988 21.3108 13.098 20.6498 12.4774C19.9926 11.8604 19.0983 11.5475 18.1367 11.5475H16.6357H15.8052H13.9348C14.0341 10.8594 14.3302 10.3297 14.7414 9.95618C15.2327 9.50994 15.9159 9.26181 16.6967 9.26181H18.8529H19.6833Z" fill="white" stroke="white" stroke-width="0.761905"/>
<path d="M16.7348 12.805L16.4757 13.0594V13.0564C16.4757 13.0561 16.4757 13.0559 16.4757 13.0559C16.4757 13.0559 16.4757 13.0561 16.4757 13.0564C16.4756 13.0571 16.4753 13.0583 16.4748 13.06C16.4747 13.0602 16.4747 13.0604 16.4746 13.0605L16.463 13.0719C16.4631 13.0721 16.4633 13.0722 16.4634 13.0724C16.4633 13.0723 16.4631 13.0722 16.463 13.0721C16.4627 13.072 16.4626 13.0719 16.4626 13.0719C16.4626 13.0719 16.4636 13.0725 16.4654 13.0744L16.4662 13.0736L16.4757 13.064L16.7348 12.805ZM16.7348 12.805C17.5729 13.6583 19.051 15.144 19.8815 15.9745C20.11 16.2031 19.9424 16.584 19.6148 16.584H19.6147C18.9671 16.584 18.2128 16.584 17.6719 16.5764C16.8034 16.5764 16.0948 15.8907 16.0948 15.0526V13.0564C16.0948 12.7288 16.4986 12.5688 16.7348 12.805ZM17.6773 16.1955L17.6773 16.1955H17.6719C17.0015 16.1955 16.4757 15.6682 16.4757 15.0526V13.0849C17.3035 13.9275 18.7379 15.3695 19.5713 16.2031C18.9328 16.2031 18.203 16.2029 17.6773 16.1955Z" fill="white" stroke="white" stroke-width="0.761905"/>
</svg>
