<svg width="25" height="24" viewBox="0 0 25 24" fill="none" xmlns="http://www.w3.org/2000/svg">
<path d="M21.5702 5.23C19.9602 5.07 18.3502 4.95 16.7302 4.86V4.85L16.5102 3.55C16.3602 2.63 16.1402 1.25 13.8002 1.25H11.1802C8.85016 1.25 8.63016 2.57 8.47016 3.54L8.26016 4.82C7.33016 4.88 6.40016 4.94 5.47016 5.03L3.43016 5.23C3.01016 5.27 2.71016 5.64 2.75016 6.05C2.79016 6.46 3.15016 6.76 3.57016 6.72L5.61016 6.52C10.8502 6 16.1302 6.2 21.4302 6.73C21.4602 6.73 21.4802 6.73 21.5102 6.73C21.8902 6.73 22.2202 6.44 22.2602 6.05C22.2902 5.64 21.9902 5.27 21.5702 5.23Z" fill="#F83245"/>
<path d="M19.7302 8.14C19.4902 7.89 19.1602 7.75 18.8202 7.75H6.18024C5.84024 7.75 5.50024 7.89 5.27024 8.14C5.04024 8.39 4.91024 8.73 4.93024 9.08L5.55024 19.34C5.66024 20.86 5.80024 22.76 9.29024 22.76H15.7102C19.2002 22.76 19.3402 20.87 19.4502 19.34L20.0702 9.09C20.0902 8.73 19.9602 8.39 19.7302 8.14ZM14.1602 17.75H10.8302C10.4202 17.75 10.0802 17.41 10.0802 17C10.0802 16.59 10.4202 16.25 10.8302 16.25H14.1602C14.5702 16.25 14.9102 16.59 14.9102 17C14.9102 17.41 14.5702 17.75 14.1602 17.75ZM15.0002 13.75H10.0002C9.59024 13.75 9.25024 13.41 9.25024 13C9.25024 12.59 9.59024 12.25 10.0002 12.25H15.0002C15.4102 12.25 15.7502 12.59 15.7502 13C15.7502 13.41 15.4102 13.75 15.0002 13.75Z" fill="#F83245"/>
</svg>
